<svg xmlns="http://www.w3.org/2000/svg" version="1.1" xmlns:xlink="http://www.w3.org/1999/xlink" width="512" height="512" x="0" y="0" viewBox="0 0 32 32" style="enable-background:new 0 0 512 512" xml:space="preserve" class=""><g><path d="M26 31a1 1 0 0 1-.62-.22L16 23.28l-9.37 7.5A1 1 0 0 1 5 30V2a1 1 0 0 1 1-1h20a1 1 0 0 1 1 1v28a1 1 0 0 1-.57.9.91.91 0 0 1-.43.1zM16 21a1 1 0 0 1 .63.22l8.37 6.7V3H7v24.92l8.38-6.7A1 1 0 0 1 16 21z" fill="#000000" opacity="1" data-original="#000000" class=""></path></g></svg>