<svg xmlns="http://www.w3.org/2000/svg" version="1.1" xmlns:xlink="http://www.w3.org/1999/xlink" width="512" height="512" x="0" y="0" viewBox="0 0 60 60" style="enable-background:new 0 0 512 512" xml:space="preserve" class=""><g><linearGradient id="a" x1="30" x2="30" y1="0" y2="60" gradientUnits="userSpaceOnUse"><stop offset="0" stop-color="#ffb46f"></stop><stop offset="1" stop-color="#ff7549"></stop></linearGradient><linearGradient id="b" x1="30" x2="30" y1="14" y2="46" gradientUnits="userSpaceOnUse"><stop offset="0" stop-color="#e1e3eb"></stop><stop offset="1" stop-color="#fff"></stop></linearGradient><circle cx="30" cy="30" r="30" fill="#000000" opacity="1" data-original="#000000" class=""></circle><circle cx="30" cy="30" r="30" fill="url(#a)" opacity="1" data-original="url(#a)" class=""></circle><g fill-rule="evenodd" clip-rule="evenodd"><path fill="#000000" fill-opacity=".2" d="M28.571 18.162c4.216-4.216 11.051-4.216 15.267 0 4.216 4.216 4.216 11.051 0 15.267l-1.735 1.735a2.453 2.453 0 1 1-3.47-3.47l1.735-1.735a5.889 5.889 0 0 0-8.327-8.327l-1.735 1.734a2.453 2.453 0 1 1-3.47-3.47zm6.593 8.674a2.453 2.453 0 0 1 0 3.47l-4.858 4.858a2.453 2.453 0 1 1-3.47-3.47l4.858-4.858a2.453 2.453 0 0 1 3.47 0zm-11.971.174a2.453 2.453 0 0 1 0 3.47l-1.561 1.56a5.889 5.889 0 0 0 8.327 8.328l1.561-1.561a2.453 2.453 0 1 1 3.47 3.47l-1.561 1.561c-4.216 4.216-11.051 4.216-15.267 0-4.216-4.216-4.216-11.051 0-15.267l1.561-1.561a2.453 2.453 0 0 1 3.47 0z" opacity="1" data-original="#000000" class=""></path><path fill="url(#b)" d="M27.571 17.162c4.216-4.216 11.051-4.216 15.267 0 4.216 4.216 4.216 11.051 0 15.267l-1.735 1.735a2.453 2.453 0 1 1-3.47-3.47l1.735-1.735a5.889 5.889 0 0 0-8.327-8.327l-1.735 1.734a2.453 2.453 0 1 1-3.47-3.47zm6.593 8.674a2.453 2.453 0 0 1 0 3.47l-4.858 4.858a2.453 2.453 0 1 1-3.47-3.47l4.858-4.858a2.453 2.453 0 0 1 3.47 0zm-11.971.174a2.453 2.453 0 0 1 0 3.47l-1.561 1.56a5.889 5.889 0 0 0 8.327 8.328l1.561-1.561a2.453 2.453 0 1 1 3.47 3.47l-1.561 1.561c-4.216 4.216-11.051 4.216-15.267 0-4.216-4.216-4.216-11.051 0-15.267l1.561-1.561a2.453 2.453 0 0 1 3.47 0z" opacity="1" data-original="url(#b)" class=""></path></g></g></svg>